<svg xmlns="http://www.w3.org/2000/svg" xmlns:xlink="http://www.w3.org/1999/xlink" viewBox="0,0,256,256" width="50px" height="50px" fill-rule="nonzero"><g fill="#f4f0f0" fill-rule="nonzero" stroke="none" stroke-width="1" stroke-linecap="butt" stroke-linejoin="miter" stroke-miterlimit="10" stroke-dasharray="" stroke-dashoffset="0" font-family="none" font-weight="none" font-size="none" text-anchor="none" style="mix-blend-mode: normal"><g transform="scale(5.12,5.12)"><path d="M5.95313,4c-0.51172,0 -1.03125,0.1875 -1.39844,0.55469c-0.36719,0.36719 -0.55469,0.88672 -0.55469,1.39844v38.09375c0,0.50781 0.1875,1.03125 0.55469,1.39844c0.36719,0.36719 0.88672,0.55469 1.39844,0.55469h38.09375c0.50781,0 1.03125,-0.1875 1.39844,-0.55469c0.36719,-0.36719 0.55469,-0.88672 0.55469,-1.39844v-38.09375c0,-0.51172 -0.1875,-1.03125 -0.55469,-1.39844c-0.36719,-0.36719 -0.88672,-0.55469 -1.39844,-0.55469zM6,6h38v38h-38zM27.9375,19.8125c-2.11328,0 -3.19141,1.34766 -3.19141,2.96875c0,0.91406 0.52344,1.98047 1.90625,2.82031c0.85156,0.55469 1.30078,0.91406 1.30078,1.64844c0,0.66016 -0.44922,1.14063 -1.37891,1.14063c-0.57031,0 -1.25781,-0.16406 -1.66406,-0.39062l-0.28516,1.69531c0.32813,0.19531 1.125,0.40625 1.9375,0.40625c1.97656,0 3.34375,-1.21484 3.34375,-3.05859c0,-1.06641 -0.49609,-2.08594 -1.83203,-2.89844c-1.09375,-0.66016 -1.39453,-0.97266 -1.39453,-1.57422c0,-0.53906 0.40625,-1.05078 1.24609,-1.05078c0.57031,0 1.00391,0.16406 1.28906,0.34375l0.31641,-1.69141c-0.30078,-0.17969 -0.93359,-0.35937 -1.59375,-0.35937zM21.55078,19.90234v6.97266c0,1.30469 -0.48047,1.53125 -1.05078,1.53125c-0.25391,0 -0.44922,-0.01562 -0.64453,-0.07422l-0.16797,1.64844c0.22656,0.08984 0.58594,0.14844 0.99219,0.14844c1.44141,0 2.85156,-0.43359 2.85156,-3.34375v-6.88281z"></path></g></g></svg>